<svg id="Group_4920" data-name="Group 4920" xmlns="http://www.w3.org/2000/svg" xmlns:xlink="http://www.w3.org/1999/xlink" width="197.586" height="99.5" viewBox="0 0 197.586 99.5">
  <defs>
    <clipPath id="clip-path">
      <rect id="Rectangle_311" data-name="Rectangle 311" width="197.586" height="99.5" fill="none"/>
    </clipPath>
    <clipPath id="clip-path-3">
      <rect id="Rectangle_313" data-name="Rectangle 313" width="173.516" height="74.008" fill="none"/>
    </clipPath>
  </defs>
  <g id="Group_1490" data-name="Group 1490">
    <g id="Group_1489" data-name="Group 1489" clip-path="url(#clip-path)">
      <path id="Path_881" data-name="Path 881" d="M55.571,64.075a1.787,1.787,0,0,1-.373-.093,1.546,1.546,0,0,1,.667,1.442,1.5,1.5,0,0,1-.82,1.3.924.924,0,0,1,.121-.02c1.681-.18,5.851-1.1,9.529-1.92l1.162-.257C70.819,63.408,76.6,59.471,76.6,52.041c0-7.678-8.285-13.691-18.859-13.691a24.182,24.182,0,0,0-6.921.868l-1.7.431v65.645H60.282c11.331,0,22.762-6.155,22.762-19.912,0-14.192-12.158-18.7-15.883-19.744A64.359,64.359,0,0,0,57.77,64.3c-.952-.092-1.777-.173-2.2-.224m10.346,5.838c2.952.829,12.595,4.386,12.595,15.468,0,11.414-9.82,15.468-18.23,15.468H51.394l2.266,2.223v-61.7l-1.7,2.152a19.708,19.708,0,0,1,5.785-.729c8.032,0,14.326,4.061,14.326,9.247,0,4.815-3.887,7.4-7.22,8.147l-1.157.256c-3.206.712-7.588,1.687-9,1.836-2.258.231-3.314,1.641-3.353,2.941-.039,1.284.856,2.808,3.49,3.239.654.085,1.507.167,2.5.261a63.514,63.514,0,0,1,8.588,1.192" transform="translate(-32.261 -25.184)" fill="#d39f29"/>
      <path id="Path_882" data-name="Path 882" d="M47.474,54.686c3.661-2.489,6.571-5.96,6.571-11.513a14.456,14.456,0,0,0-4.527-10.566c-4.549-4.422-12.359-7.022-20.885-6.949l-22.841.085L0,25.765,4.27,29.6c2.723,2.45,3.073,5.545,3.073,7.969v56.9a19.766,19.766,0,0,1-.228,2.183A13.973,13.973,0,0,0,6.9,99.469a3.576,3.576,0,0,0,1.532,2.624,6.342,6.342,0,0,0,4.531.672,19.868,19.868,0,0,1,7.516-.755,126.8,126.8,0,0,0,13.407.554l.667,0c12.8,0,27.116-11.1,27.116-25.961,0-10.816-4.545-17.879-14.193-21.916M34.551,98.117h-.684A121.85,121.85,0,0,1,21.056,97.6a23.988,23.988,0,0,0-9.339.892c-.023,0-.136-.007-.266-.013.041-.384.105-.86.157-1.234a21.386,21.386,0,0,0,.267-2.778v-56.9a16.059,16.059,0,0,0-1.59-7.4l18.378-.07c7.245-.061,14.008,2.111,17.662,5.66a10.016,10.016,0,0,1,3.188,7.411c0,4.273-2.365,7.081-8.434,10.012l-5.29,2.547,5.672,1.582C52.445,60.375,57.135,66.142,57.135,76.6c0,12.119-12.142,21.516-22.584,21.516" transform="translate(0 -16.849)" fill="#d39f29"/>
      <path id="Path_883" data-name="Path 883" d="M230.607,26.654l-.336-1.862-1.933.029c-5.766.09-10.346.269-10.392.269H180.253l4.009,3.815c2.157,2.055,3.121,4.553,3.121,8.1v64.813h13.964V63.952c.6,0,1.254-.011,2.014-.019,4.144-.045,10.407-.114,14.512.179-.018,0,1.545.142,1.545.142,3.674.35,8.706.833,9.478-4.723a12.614,12.614,0,0,0,0-4.2l-.362-2.082c0-.028-2.142.214-2.142.214-5.682.651-18.064.905-25.041.952V34.51a43.752,43.752,0,0,1,21.99,2.819c1.775.767,3.927,1.7,5.785.514,1.814-1.161,2.061-3.567,2.061-6a44.066,44.066,0,0,0-.576-5.193m-32,3.817-1.8.37V58.873h2.267c4.463,0,17.631-.147,25.4-.763-.02.256-.04.512-.083.83-.142,1.026-.177,1.305-4.535.888l-1.644-.149c-4.307-.309-10.689-.239-14.91-.195-1.879.023-3.5.039-4.138.012l-2.36-.1V97.373h-4.9V37a16.21,16.21,0,0,0-1.64-7.469h27.761c.122,0,3.646-.141,8.378-.235.139,1.133.237,2.224.237,2.548a12.39,12.39,0,0,1-.121,1.961c-.468-.161-1.045-.406-1.325-.528-.47-.214-12.682-5.686-26.6-2.809" transform="translate(-118.371 -16.281)" fill="#d39f29"/>
      <path id="Path_884" data-name="Path 884" d="M398.017,84.414,396.7,80.9l-2.516,2.815a27.542,27.542,0,0,1-16.355,8.517c-19.241,3.336-28.986-11.647-31.492-25.489a34.537,34.537,0,0,1,5.653-25.053,22.183,22.183,0,0,1,14.53-9.266c9.454-1.649,17.695,2.649,20.295,6.069,1.849,2.416,3.847,4.72,6.294,4.194,2.271-.488,2.82-2.986,3-3.808.031-.176.235-1.541,1.261-5.926l.329-1.4-1.163-.871c-8.38-6.25-19.47-8.578-31.237-6.555-11.561,1.966-21.4,7.893-27.692,16.689A38.191,38.191,0,0,0,331.169,70.1c1.9,10.7,7.214,19.315,15.362,24.92,8.831,6.07,20.574,8.215,33.069,6.041a35.822,35.822,0,0,0,13.666-5.482c4.905-3.629,6.327-6.968,4.751-11.167M375.3,27.954a33.448,33.448,0,0,1,17.3,5.494c-.478,2.1-.723,3.32-.846,3.986-.34-.372-.767-.878-1.317-1.6-2.244-2.955-7.758-6.74-15.142-7.883m3.5,68.73c-11.3,1.969-21.838.084-29.671-5.3-7.145-4.912-11.81-12.537-13.5-22.053a33.842,33.842,0,0,1,5.684-25.956A36.134,36.134,0,0,1,357.233,31.06a27.754,27.754,0,0,0-8.946,8.072,39.087,39.087,0,0,0-6.414,28.386c3.1,17.117,15.657,32.753,36.725,29.1a37.376,37.376,0,0,0,5.211-1.258,29.968,29.968,0,0,1-5,1.326" transform="translate(-217.053 -15.382)" fill="#d39f29"/>
    </g>
  </g>
  <g id="Group_1496" data-name="Group 1496">
    <g id="Group_1495" data-name="Group 1495" clip-path="url(#clip-path)">
      <g id="Group_1494" data-name="Group 1494" transform="translate(5.803 10.275)">
        <g id="Group_1493" data-name="Group 1493" clip-path="url(#clip-path-3)">
          <g id="Group_1492" data-name="Group 1492">
            <g id="Group_1491" data-name="Group 1491" clip-path="url(#clip-path-3)">
              <path id="Path_885" data-name="Path 885" d="M400.208,89.457c1,2.67.825,5.058-3.987,8.623a33.474,33.474,0,0,1-12.7,5.058c-22.48,3.916-41.8-6.656-45.8-29.154-3.706-20.548,9.8-39.568,32.3-43.379,10.344-1.791,21.128-.105,29.47,6.129-1.089,4.619-1.265,5.954-1.265,5.954-.737,3.284-2.265,2.67-5.269-1.247-2.9-3.829-11.784-8.8-22.48-6.937-17.685,2.933-24.5,23.217-22.041,36.9,2.986,16.544,14.595,30.682,34.089,27.292a29.969,29.969,0,0,0,17.685-9.238" transform="translate(-227.182 -29.93)" fill="#fff"/>
              <path id="Path_886" data-name="Path 886" d="M435.972,96.222V103.6h-9.291V120.23h-7.517V103.6h-9.273V96.222h9.273V88.986h7.517v7.236Z" transform="translate(-274.976 -68.712)" fill="#fff"/>
              <path id="Path_887" data-name="Path 887" d="M239.052,31.333a40.42,40.42,0,0,1,.544,4.812c0,5.234-1.546,4.795-4.619,3.46,0,0-11.89-5.427-25.22-2.67V60.944c4.707,0,20.583-.176,27.573-.966a10.818,10.818,0,0,1,0,3.548c-.544,3.916-4.075,3.021-8.623,2.67-6.165-.439-16.772-.088-18.95-.176v37.865h-9.431V41.291a12.553,12.553,0,0,0-3.811-9.677h32.192s4.548-.193,10.344-.281" transform="translate(-134.854 -30.851)" fill="#fff"/>
              <path id="Path_888" data-name="Path 888" d="M78.467,59.441C88.987,62.374,95.8,68.064,95.8,80.867c0,13.242-12.891,23.727-24.851,23.727a131.635,131.635,0,0,1-13.786-.527,16.838,16.838,0,0,0-1.739-.105l.105-4.97h8.886c10.7,0,20.5-5.6,20.5-17.685,0-10.678-7.886-15.824-14.243-17.6-2.722-.808-9.238-1.247-11.328-1.51-1.106-.193-1.6-.6-1.6-.984,0-.369.474-.72,1.317-.808,1.739-.176,6.814-1.317,10.432-2.125,4.356-.984,8.974-4.356,8.974-10.309,0-6.674-7.6-11.468-16.6-11.468l-.018-4.338,3.2-.018c10.8-.088,23.13,4.619,23.13,15.28,0,6.147-4.162,9.343-9.712,12.013" transform="translate(-42.2 -31.386)" fill="#fff"/>
              <path id="Path_889" data-name="Path 889" d="M36.556,32.2l.018,4.338a22.106,22.106,0,0,0-6.34.79v61.7L30.128,104a21.119,21.119,0,0,0-6.6.913c-.369.088-3.091.439-3.267-1.335-.088-.984.457-3.389.457-4.812v-56.9c0-3.021-.544-6.656-3.811-9.589Z" transform="translate(-16.903 -31.423)" fill="#fff"/>
            </g>
          </g>
        </g>
      </g>
    </g>
  </g>
  <path id="Path_890" data-name="Path 890" d="M433.8,92.981h-8.143v-7.24h-9.785v7.24h-9.279v9.592h9.279v16.641h9.785V102.574h9.277V92.981Zm-10.412,8.48v15.527h-5.246V100.349h-9.278V95.206h9.278v-7.24h5.246v7.24h9.277v5.144h-9.277Z" transform="translate(-267.008 -56.306)" fill="#d39f29"/>
</svg>
